<svg width="115" height="115" viewBox="0 0 115 115" fill="none" xmlns="http://www.w3.org/2000/svg">
<g filter="url(#filter0_ii_1_387)">
<path d="M91.0425 23.9577L23.9591 91.041M43.1258 31.1452C43.1258 37.7611 37.7626 43.1244 31.1466 43.1244C24.5307 43.1244 19.1675 37.7611 19.1675 31.1452C19.1675 24.5293 24.5307 19.166 31.1466 19.166C37.7626 19.166 43.1258 24.5293 43.1258 31.1452ZM95.8342 83.8535C95.8342 90.4694 90.4709 95.8327 83.855 95.8327C77.2391 95.8327 71.8758 90.4694 71.8758 83.8535C71.8758 77.2376 77.2391 71.8744 83.855 71.8744C90.4709 71.8744 95.8342 77.2376 95.8342 83.8535Z" stroke="black" stroke-width="14.375" stroke-linecap="round" stroke-linejoin="round"/>
</g>
<defs>
<filter id="filter0_ii_1_387" x="7.18831" y="11.9785" width="100.625" height="95.8337" filterUnits="userSpaceOnUse" color-interpolation-filters="sRGB">
<feFlood flood-opacity="0" result="BackgroundImageFix"/>
<feBlend mode="normal" in="SourceGraphic" in2="BackgroundImageFix" result="shape"/>
<feColorMatrix in="SourceAlpha" type="matrix" values="0 0 0 0 0 0 0 0 0 0 0 0 0 0 0 0 0 0 127 0" result="hardAlpha"/>
<feOffset dx="-4.79167" dy="4.79167"/>
<feGaussianBlur stdDeviation="4.79167"/>
<feComposite in2="hardAlpha" operator="arithmetic" k2="-1" k3="1"/>
<feColorMatrix type="matrix" values="0 0 0 0 1 0 0 0 0 1 0 0 0 0 1 0 0 0 0.25 0"/>
<feBlend mode="normal" in2="shape" result="effect1_innerShadow_1_387"/>
<feColorMatrix in="SourceAlpha" type="matrix" values="0 0 0 0 0 0 0 0 0 0 0 0 0 0 0 0 0 0 127 0" result="hardAlpha"/>
<feOffset dx="4.79167" dy="4.79167"/>
<feGaussianBlur stdDeviation="7.1875"/>
<feComposite in2="hardAlpha" operator="arithmetic" k2="-1" k3="1"/>
<feColorMatrix type="matrix" values="0 0 0 0 0.2 0 0 0 0 0.199167 0 0 0 0 0.199217 0 0 0 0.1 0"/>
<feBlend mode="normal" in2="effect1_innerShadow_1_387" result="effect2_innerShadow_1_387"/>
</filter>
</defs>
</svg>
